<svg width="40" height="42" viewBox="0 0 40 42" fill="none" xmlns="http://www.w3.org/2000/svg">
<path fill-rule="evenodd" clip-rule="evenodd" d="M34.048 10.7942C31.7005 10.8352 29.7094 9.31059 29.0134 7.1896L27.2187 7.62122L26.6934 5.59644L28.7776 5.09527C29.0146 2.47096 31.1704 0.386034 33.8651 0.338996C36.7518 0.288605 39.1322 2.58835 39.1826 5.47539C39.233 8.36243 36.9348 10.7438 34.048 10.7942ZM33.902 2.43057C32.1706 2.46079 30.7909 3.88948 30.8211 5.62179C30.8514 7.3541 32.2801 8.73376 34.0115 8.70354C35.7429 8.67331 37.1227 7.24419 37.0924 5.51232C37.0622 3.78045 35.6334 2.40035 33.902 2.43057ZM36.5036 31.6678C36.5943 36.8647 32.456 41.1508 27.2609 41.2414C22.0654 41.3321 17.78 37.1927 17.6893 31.9962C17.6441 29.4102 18.6474 27.0505 20.306 25.3203L17.3321 22.1058L18.8409 20.6579L21.9177 23.9841C23.36 23.0302 25.0765 22.4554 26.9324 22.423C32.128 22.3318 36.4129 26.4708 36.5036 31.6678ZM26.9689 24.5132C22.9278 24.5838 19.7093 27.9175 19.7798 31.9597C19.8504 36.0019 23.1833 39.2208 27.2244 39.1503C31.2656 39.0798 34.4836 35.7465 34.413 31.7043C34.3425 27.6621 31.0101 24.4427 26.9689 24.5132ZM20.2879 7.1382L24.661 6.08603L25.1868 8.11081L20.8137 9.16254L20.2879 7.1382ZM15.2341 11.1226C15.2617 12.7007 14.7767 14.1613 13.9481 15.3718L17.4201 19.1238L15.9113 20.5725L12.5164 16.9037C11.2892 17.9045 9.75024 18.5394 8.04461 18.5691C4.00347 18.6397 0.671038 15.4203 0.600484 11.3785C0.529931 7.33677 3.74841 4.00304 7.78911 3.93251C10.895 3.87829 13.5667 5.77577 14.6759 8.4891L18.2546 7.62781L18.7799 9.6526L15.1623 10.523C15.1831 10.7237 15.2305 10.9163 15.2341 11.1226ZM7.82578 6.00763C4.93106 6.05816 2.62496 8.44638 2.6755 11.3419C2.72605 14.2374 5.1141 16.5441 8.00882 16.4936C10.9035 16.443 13.2096 14.0544 13.1591 11.1589C13.1085 8.26338 10.7209 5.95709 7.82578 6.00763Z" fill="url(#paint0_linear_2_15094)"/>
<defs>
<linearGradient id="paint0_linear_2_15094" x1="1.12974" y1="41.6976" x2="39.8031" y2="41.0225" gradientUnits="userSpaceOnUse">
<stop stop-color="#083B66"/>
<stop offset="0.439269" stop-color="#083B66"/>
<stop offset="0.708162" stop-color="#74D14C"/>
<stop offset="1" stop-color="#74D14C"/>
</linearGradient>
</defs>
</svg>
